<svg version="1.1" id="Layer_1" xmlns="http://www.w3.org/2000/svg" xmlns:xlink="http://www.w3.org/1999/xlink" x="0px" y="0px"
	 width="100%" viewBox="0 0 1024 1024" enable-background="new 0 0 1024 1024" xml:space="preserve">
<path fill="#000000" opacity="1.000000" stroke="none" 
	d="
M907.694580,661.336304 
	C911.575195,678.386230 911.877625,695.209595 908.267090,711.782837 
	C900.726624,746.395996 881.564697,773.067200 851.204956,791.422241 
	C838.294678,799.227539 824.263672,803.929077 809.300110,806.580811 
	C794.440308,809.214233 779.842041,808.640686 765.210754,806.046875 
	C759.560181,805.045166 754.083740,803.061218 748.039307,801.727600 
	C756.492065,808.545471 756.474243,817.837769 755.998413,827.209656 
	C755.833679,830.453552 757.031677,832.290039 760.305176,832.680664 
	C772.741760,834.164124 783.098328,839.602966 791.285156,849.426941 
	C795.634094,846.535095 799.010132,842.796326 803.368958,840.376160 
	C825.243835,828.230530 846.939270,828.747314 868.187927,841.683289 
	C871.941040,843.968140 873.614136,844.321777 877.080444,840.908264 
	C886.829773,831.307373 898.719543,829.786682 911.227722,834.806213 
	C915.544128,836.538513 919.193970,836.652710 923.606262,835.136719 
	C953.047546,825.020630 983.715820,841.560181 990.404358,871.867432 
	C994.949890,892.464539 995.325500,913.321594 984.959900,932.664062 
	C977.381226,946.806030 965.802307,956.394043 949.526428,959.250122 
	C946.721497,959.742310 946.051697,961.296143 945.996216,963.738464 
	C945.894348,968.219666 946.430176,972.726624 945.194336,977.161499 
	C942.511353,986.789856 935.820801,992.565613 925.805847,992.939636 
	C916.653442,993.281372 907.462341,993.344238 898.316467,992.921204 
	C885.725098,992.338867 878.765259,984.554016 878.777100,971.891357 
	C878.785400,962.960510 878.778625,954.029663 878.778625,945.451721 
	C877.104553,944.646362 876.478455,945.298279 875.901184,945.852112 
	C861.684082,959.487671 844.259827,962.867554 825.520203,960.921143 
	C817.066833,960.043030 808.983948,957.057251 801.925476,952.051514 
	C799.272583,950.170105 797.481934,950.141724 795.114258,952.615906 
	C790.786377,957.138367 785.252136,959.254211 778.951111,959.243530 
	C771.619141,959.231140 764.287109,959.213928 756.955139,959.227966 
	C754.434937,959.232788 751.966492,959.040894 749.612732,958.030151 
	C747.720825,957.217834 745.683655,956.893555 743.739502,957.492615 
	C731.992249,961.112671 720.000671,960.326843 708.118469,959.010986 
	C701.388733,958.265686 695.500122,954.919067 691.431091,948.416138 
	C685.500671,952.655640 679.388550,955.838379 672.737854,958.042725 
	C659.912659,962.293518 646.799744,961.974609 633.745972,960.333923 
	C622.043884,958.863159 611.202026,954.844849 602.417480,946.372375 
	C594.163574,938.411804 590.795654,928.751587 591.825378,917.479065 
	C592.778625,907.044128 595.587036,897.172058 602.054565,888.749634 
	C604.054016,886.145752 602.604919,884.552002 601.590820,882.528381 
	C587.939636,855.287659 593.174255,820.715576 623.309692,804.086487 
	C636.838196,796.621216 651.547913,794.659058 666.811340,796.894348 
	C675.503418,798.167358 684.272888,799.134399 692.363098,802.949646 
	C693.738159,803.598145 694.889771,803.178955 696.103638,802.431580 
	C708.687866,794.683044 722.280884,794.917725 736.153809,797.433960 
	C736.781494,797.547852 737.412354,797.644043 738.258484,797.224670 
	C734.503784,795.278320 730.647522,793.503845 727.012573,791.354919 
	C713.531860,783.385437 701.639221,773.495605 692.478394,760.734314 
	C689.397644,756.442749 685.945435,755.713440 681.335449,756.617065 
	C663.911316,760.032532 646.385010,762.824219 628.832825,765.513733 
	C613.264221,767.899353 597.833008,771.167297 582.300171,773.804810 
	C566.444458,776.497070 550.523132,778.800903 534.659790,781.450256 
	C519.278137,784.019226 503.945740,786.882629 488.569550,789.485901 
	C472.551575,792.197754 456.499817,794.709534 440.476624,797.391113 
	C428.093262,799.463501 415.731171,801.663086 403.049438,803.859863 
	C403.973541,806.217407 406.022675,806.748535 407.606018,807.720093 
	C419.025879,814.727783 426.855072,824.474670 430.349396,837.497375 
	C431.211334,840.709656 432.574493,840.896973 435.360596,839.373901 
	C454.487274,828.918640 473.889648,829.494995 493.363556,838.383484 
	C497.466003,840.256042 503.067688,837.997986 503.501984,833.480652 
	C504.403625,824.102356 510.196106,819.191772 518.328430,816.693909 
	C531.207397,812.738098 544.202637,812.866760 556.979736,817.388184 
	C563.466370,819.683533 568.271118,823.738770 569.317871,831.041992 
	C569.563416,832.755371 570.613098,833.830627 572.085388,834.275574 
	C582.264526,837.351990 586.486267,845.120850 587.762573,854.784058 
	C589.054016,864.562134 589.280334,874.395569 585.094543,883.712646 
	C583.270874,887.771851 580.497620,891.286011 576.363586,892.956482 
	C573.005981,894.313110 572.489502,896.394043 572.566956,899.538330 
	C572.907104,913.351257 573.205383,927.174683 572.441772,940.979553 
	C571.922729,950.363708 566.964478,956.577087 557.849915,958.916809 
	C543.489929,962.603149 529.194885,961.778870 515.066406,957.395386 
	C513.108887,956.788025 511.146759,955.968079 509.936981,954.434448 
	C506.933533,950.626831 504.174347,951.795715 500.482819,953.639526 
	C474.945801,966.394836 439.539917,964.507263 420.091492,941.803345 
	C414.151306,934.868652 409.678528,927.224243 407.482971,918.303833 
	C407.097687,916.738403 406.391602,915.251831 405.646393,913.217712 
	C398.334595,917.348938 391.056580,920.481384 383.256531,922.249146 
	C381.130890,922.730896 381.088074,924.537354 381.068115,926.228027 
	C381.030731,929.393860 381.003174,932.561401 381.063721,935.726501 
	C381.363129,951.378479 371.103333,957.502502 358.333649,959.075928 
	C350.123627,960.087524 341.807678,960.297424 333.428619,959.403564 
	C318.733795,957.835938 309.316284,949.864929 309.669525,934.415466 
	C310.240814,909.430908 309.813141,884.423462 309.807404,859.425720 
	C309.806976,857.486572 309.807373,855.547485 309.807373,852.444641 
	C305.132324,858.051636 301.473419,862.925110 297.321472,867.334351 
	C280.580231,885.112976 260.389557,896.835388 236.542282,902.684143 
	C218.892761,907.012695 201.191544,907.840454 183.693924,903.826599 
	C143.567001,894.621948 114.240761,871.407593 96.968513,833.726135 
	C89.643936,817.746765 87.143677,800.838440 87.379982,783.256714 
	C87.624695,765.049683 92.278915,748.160095 100.235123,732.034546 
	C101.598747,729.270874 101.276413,727.673950 99.167046,725.569946 
	C81.482330,707.929626 69.876381,686.849915 65.281448,662.318115 
	C63.263409,651.544067 63.491699,640.415466 64.244621,629.427307 
	C66.539490,595.935791 82.140869,569.392944 107.231247,547.919922 
	C109.402565,546.061646 110.371605,544.747131 108.818695,541.751953 
	C96.845558,518.658813 87.570312,494.475800 81.283607,469.251007 
	C75.901047,447.654022 72.452774,425.764191 71.424706,403.406250 
	C70.672203,387.041382 70.903145,370.721924 72.010338,354.485748 
	C72.966148,340.469482 75.103127,326.490845 78.199463,312.649139 
	C81.901451,296.099945 86.422729,279.859833 92.294785,263.983612 
	C104.455681,231.104248 121.514320,200.940186 142.980469,173.257492 
	C170.347076,137.965561 203.143066,108.761055 241.577576,86.000557 
	C263.830536,72.822617 287.292908,62.329124 312.001099,54.500355 
	C327.839783,49.481869 343.875519,45.349682 360.244690,42.874084 
	C390.605865,38.282391 421.091156,37.152340 451.750885,40.394104 
	C464.655151,41.758514 477.501038,43.381695 490.134186,46.102257 
	C516.035461,51.680099 541.027771,60.145817 564.942993,71.640564 
	C608.300171,92.479988 645.916016,120.905022 677.675049,157.057297 
	C703.408386,186.350449 723.522034,219.088959 738.178101,255.225189 
	C747.897217,279.188904 754.892273,303.935455 758.832703,329.438934 
	C762.930664,355.961609 764.743347,382.678650 762.289246,409.527893 
	C762.062317,412.010925 761.657104,414.479858 761.274170,416.945953 
	C760.621155,421.150757 762.022766,422.962921 766.627502,422.847412 
	C787.095642,422.334137 806.102661,427.980835 823.725708,437.978760 
	C852.034668,454.039093 871.344482,477.433563 880.513062,509.003815 
	C889.013855,538.274536 886.244080,566.492371 873.265198,593.800354 
	C871.350708,597.828674 871.705750,600.147522 874.928955,603.156677 
	C890.530273,617.721497 900.329102,635.875488 906.706055,656.027283 
	C907.202759,657.596924 907.282959,659.298340 907.694580,661.336304 
M866.886169,654.587158 
	C856.122009,633.641418 838.335571,621.024170 816.651978,613.502625 
	C817.923706,609.187256 821.041382,607.813782 823.313904,605.752502 
	C839.316589,591.237854 847.901184,572.919617 850.561157,551.792053 
	C851.970947,540.594666 849.601257,529.632996 845.920227,519.071167 
	C828.788696,469.917419 770.098328,450.121094 725.825745,476.802673 
	C698.038025,493.549347 684.673462,518.784729 686.058960,551.568665 
	C686.285889,556.937683 687.316711,562.075623 688.324280,567.269714 
	C688.880615,570.137817 687.738220,571.352478 684.906921,572.145081 
	C681.165100,573.192505 677.336609,573.164246 673.583740,573.860840 
	C663.838501,575.669739 654.084961,577.439270 644.314087,579.103638 
	C628.810852,581.744385 613.292114,584.293823 597.777710,586.868652 
	C584.887939,589.007996 571.994812,591.126953 559.103516,593.257202 
	C551.246765,594.555481 543.381897,595.807434 535.536621,597.171814 
	C526.414917,598.758057 517.326782,600.540405 508.195343,602.065918 
	C492.508698,604.686523 476.783569,607.078369 461.104858,609.744263 
	C445.424591,612.410278 429.802856,615.422729 414.115936,618.046997 
	C398.271790,620.697632 382.308319,622.683838 366.531006,625.668823 
	C354.659180,627.914917 342.699585,629.614685 330.841125,631.979675 
	C317.379486,634.664429 303.715881,636.354248 290.191925,638.837708 
	C285.661804,639.669617 281.073517,640.431885 276.497589,641.124939 
	C272.981171,641.657654 270.548920,640.435608 270.779358,636.306702 
	C271.111298,630.360107 269.036926,624.896240 267.400757,619.342712 
	C256.172302,581.230591 218.283829,557.681213 176.647446,563.482666 
	C154.921295,566.509949 136.782806,576.977173 123.299782,594.618103 
	C107.449547,615.356201 102.285774,638.845337 108.945854,663.866943 
	C116.228325,691.226929 134.232819,709.756531 160.822937,719.742126 
	C162.586761,720.404480 164.269089,720.993591 164.705109,723.045349 
	C164.331070,724.562256 163.110336,725.222107 162.078171,726.023804 
	C147.376648,737.442932 137.665756,752.126099 132.870895,770.137451 
	C125.987846,795.992798 131.093185,819.709412 147.845169,839.969421 
	C168.251648,864.649292 194.950333,874.643127 226.992828,869.053650 
	C248.130753,865.366394 265.072235,854.930359 278.343842,838.178162 
	C289.409668,824.210205 293.769012,807.880371 295.565887,790.602356 
	C295.800171,788.350037 295.881073,786.206604 298.757935,785.752441 
	C307.094147,784.436523 315.427338,783.101196 323.760498,781.765991 
	C331.612854,780.507812 339.474121,779.301025 347.312561,777.960999 
	C356.921234,776.318298 366.501892,774.511414 376.110474,772.868103 
	C384.123047,771.497864 392.166840,770.310669 400.181580,768.952759 
	C409.811646,767.321106 419.415436,765.533569 429.049683,763.928040 
	C436.883301,762.622498 444.761810,761.583801 452.590240,760.249817 
	C462.521881,758.557434 472.411102,756.616272 482.341309,754.914612 
	C489.846130,753.628479 497.505219,753.043030 504.884277,751.267273 
	C517.157227,748.313721 529.760498,747.515503 542.071777,744.827515 
	C551.906006,742.680359 561.925293,741.374329 571.870300,739.742859 
	C584.133057,737.731140 596.402527,735.760315 608.671692,733.788025 
	C620.123169,731.947205 631.591553,730.206787 643.027588,728.274719 
	C652.976196,726.593933 662.877930,724.636108 672.822449,722.929932 
	C684.247559,720.969666 695.737976,719.366272 707.120972,717.193420 
	C714.243164,715.834045 714.193420,715.484924 716.919983,722.374512 
	C719.384827,728.602661 722.699951,734.350037 726.593628,739.783386 
	C746.883118,768.096375 786.361145,780.495300 820.670898,768.047119 
	C851.193481,756.972961 869.523804,734.987732 875.258789,703.563477 
	C878.262146,687.106750 875.552612,670.416687 866.886169,654.587158 
M394.439453,497.724915 
	C420.685699,501.143127 445.896942,498.966766 470.130402,486.803406 
	C507.871429,467.860291 539.096069,442.837158 554.614502,401.999939 
	C561.855652,382.944763 565.977417,363.608154 561.025452,343.067810 
	C557.788879,329.643005 553.004028,317.017548 545.024719,305.790039 
	C527.062988,280.516663 510.764130,254.158463 494.439697,227.843811 
	C475.267181,196.938110 450.277283,175.200882 412.980896,169.536484 
	C399.831329,167.539383 387.014648,167.997375 374.413940,170.733658 
	C350.877991,175.844604 330.625031,187.185257 314.854980,205.823563 
	C302.123077,220.871124 293.914978,238.016052 290.025269,257.381134 
	C288.362823,265.657684 287.228912,273.998657 285.757568,282.292938 
	C283.673340,294.042236 281.227692,305.731506 279.350067,317.512329 
	C277.183563,331.105408 275.341980,344.802887 271.703278,358.050720 
	C266.959106,375.323090 267.646942,392.326202 272.706635,409.122437 
	C280.096985,433.655273 294.751831,453.453308 315.111572,468.737640 
	C338.272949,486.125183 364.951508,494.618286 394.439453,497.724915 
M656.259644,363.063812 
	C658.306702,365.346649 660.690125,367.608673 663.772705,367.576324 
	C672.500671,367.484802 680.885132,369.428345 689.398254,370.867645 
	C701.390137,372.895050 712.704163,375.906616 720.923767,385.751007 
	C721.298340,386.199615 722.033752,386.346863 722.489807,386.578064 
	C724.570618,385.658661 724.478088,383.906250 724.816650,382.287567 
	C726.550049,373.999878 725.511230,365.753479 724.915588,357.434509 
	C722.476990,323.376007 711.087830,292.021698 696.704041,261.491333 
	C689.374573,245.933914 678.900818,232.240616 670.889404,217.047806 
	C665.986206,207.749344 660.062927,198.616852 652.139587,191.299240 
	C635.506165,175.937592 618.902649,160.546997 602.027527,145.441132 
	C592.915527,137.284439 580.211243,138.012466 572.616455,142.821182 
	C560.449524,150.524841 546.923706,155.429504 534.203918,161.983078 
	C530.809143,163.732147 526.971497,164.373886 523.050659,164.321274 
	C516.053101,164.227371 509.051849,164.378998 502.055145,164.256546 
	C498.209106,164.189240 495.385803,165.852448 492.932007,168.599472 
	C491.189667,170.550034 491.289917,172.102127 492.890900,174.271713 
	C496.418335,179.051910 500.605377,181.682007 506.808105,180.933182 
	C513.403748,180.136917 519.668457,181.567581 525.673706,184.501389 
	C534.169556,188.651962 536.166138,195.932236 530.411621,203.238876 
	C528.466736,205.708359 526.261169,208.070023 523.804077,210.012039 
	C521.208252,212.063736 521.208191,213.836533 523.069763,216.276535 
	C538.132263,236.018799 553.351990,255.596588 572.479553,271.737488 
	C583.855957,281.337555 594.518005,291.803009 602.058594,304.695007 
	C605.718811,310.952881 609.401367,311.643616 615.980469,310.427765 
	C623.546082,309.029541 631.553223,310.352905 637.250305,316.323853 
	C644.944580,324.387970 651.977783,333.029602 654.893372,344.250031 
	C655.503906,346.599731 655.759216,348.539948 654.941284,350.954712 
	C653.651733,354.761780 653.387512,358.779816 656.259644,363.063812 
M337.627777,511.110657 
	C321.024750,533.090454 311.420929,557.651123 309.390900,585.494202 
	C311.373444,585.683350 312.506927,585.838196 313.645264,585.892639 
	C322.445221,586.313354 330.688782,588.554565 338.145599,593.362610 
	C339.445068,594.200439 340.803040,595.285950 340.026154,596.979309 
	C339.190338,598.801147 337.573151,598.245361 336.161438,597.538879 
	C331.222046,595.067322 325.952454,593.711548 320.590302,592.461060 
	C310.842743,590.187927 300.949524,593.639709 295.032074,601.690308 
	C290.278259,608.157776 288.532715,615.814941 286.556946,623.320618 
	C285.439240,627.566650 287.396851,629.651611 291.667358,628.666565 
	C302.219391,626.232666 312.937836,624.958801 323.587311,623.186035 
	C333.223724,621.581970 342.893127,620.163696 352.502350,618.455139 
	C359.740112,617.168152 367.274689,616.952820 374.317444,613.873718 
	C373.989197,609.626648 373.182159,605.456848 373.869446,600.521912 
	C377.875397,602.471680 377.999786,605.854919 378.717773,608.387634 
	C379.760040,612.064148 381.712402,613.354553 385.216461,612.800476 
	C390.131104,612.023193 395.038177,611.195129 399.940308,610.341919 
	C412.030609,608.237427 424.101044,606.014465 436.207611,604.008911 
	C451.890747,601.410828 467.616882,599.071289 483.295532,596.447327 
	C499.321838,593.765259 515.297058,590.776733 531.327881,588.123230 
	C537.435913,587.112244 538.040527,586.553467 537.153320,580.474854 
	C536.597839,576.669006 534.984375,572.822937 536.924438,568.842224 
	C540.083557,569.519592 540.427246,571.914185 540.890137,574.158386 
	C541.460266,576.922485 541.915527,579.710144 542.442627,582.483398 
	C542.822388,584.481201 543.809448,586.252747 546.057617,585.666687 
	C549.484802,584.773315 553.098877,585.263855 556.401672,584.270142 
	C565.143738,581.640137 574.208496,580.644653 583.118286,579.075439 
	C598.784851,576.316406 614.407227,573.093689 630.301880,571.708801 
	C631.918762,571.567993 633.600342,571.087646 634.664246,568.946960 
	C630.017822,557.457520 623.800354,546.760010 613.223389,539.307007 
	C603.686768,532.587036 593.797546,532.325256 583.917297,538.839478 
	C579.869690,541.508118 576.177917,544.597717 572.652344,547.922852 
	C571.329956,549.170105 570.228699,551.310120 567.202332,550.114319 
	C568.848999,540.775757 577.312805,537.254272 583.336670,531.444153 
	C568.846313,503.754456 547.510315,483.514648 519.788513,469.762817 
	C517.026794,468.392792 515.541748,469.540039 514.609192,471.666870 
	C506.739777,489.614136 493.410187,502.493347 476.939728,512.458984 
	C473.626038,514.463989 472.763062,516.598511 474.853668,520.209351 
	C478.872162,527.149780 479.614380,534.928162 477.613342,542.433899 
	C472.670349,560.975037 454.087128,572.530762 433.970032,566.265442 
	C423.108643,562.882751 413.054077,550.544800 412.919678,539.132080 
	C412.816925,530.407104 412.835663,530.214844 404.412506,529.393738 
	C387.354065,527.730652 372.398743,521.047913 358.696960,511.049042 
	C354.512115,507.995178 351.369202,503.923370 347.738464,500.009735 
	C343.661224,503.168884 340.905640,506.897552 337.627777,511.110657 
M242.621582,280.942413 
	C239.376572,284.293671 236.017319,287.542786 232.911133,291.018127 
	C227.047073,297.579132 222.058044,304.233490 225.203613,314.155334 
	C226.934204,319.613983 223.888565,324.250397 218.592850,327.349335 
	C215.146896,329.365814 211.883041,331.756378 208.283600,333.434418 
	C200.936691,336.859558 199.267365,342.706177 200.578766,349.983063 
	C202.092621,358.383270 202.411011,366.850677 202.291458,375.355042 
	C202.244995,378.660156 201.868546,381.956726 198.104980,383.003082 
	C194.208618,384.086365 191.683197,381.618439 190.025436,378.572418 
	C188.525909,375.817139 187.726273,372.690308 186.400803,369.827911 
	C185.377380,367.617798 184.553925,364.629944 181.728821,364.507355 
	C179.045380,364.390900 178.283981,367.349091 177.231613,369.315765 
	C172.913330,377.385803 167.501968,384.277283 159.307373,388.912689 
	C154.995285,391.351898 151.177429,394.709961 147.294678,397.848907 
	C144.079681,400.448059 143.443314,403.632446 145.099182,407.653992 
	C148.421097,415.721710 153.268280,422.355469 160.433685,427.512878 
	C165.676224,431.286346 170.852188,435.356415 174.364487,440.980347 
	C177.115875,445.385834 179.539902,449.980194 178.423660,455.463409 
	C178.057968,457.259705 177.369720,459.058899 175.151474,459.420593 
	C173.064789,459.760803 171.103226,459.530640 169.795853,457.629700 
	C164.868851,450.465729 157.169678,446.735291 149.999115,442.784363 
	C142.665710,438.743713 137.375931,433.255646 133.051346,426.420746 
	C129.051041,420.098297 124.657913,414.132477 117.670570,410.028473 
	C117.464211,410.999268 117.218468,411.599457 117.230042,412.194611 
	C117.288353,415.191254 117.141342,418.225189 117.559769,421.176086 
	C120.337593,440.766327 123.990822,460.160431 130.018875,479.072510 
	C137.842972,503.619415 148.099152,527.002991 162.002182,548.751709 
	C164.398254,552.500000 167.249313,554.501038 171.859314,553.906494 
	C179.619293,552.905823 187.408890,552.147034 195.258118,552.615540 
	C197.311676,552.738098 198.632706,551.642761 199.807068,550.065308 
	C210.607513,535.557739 215.189575,512.357788 201.437851,495.501770 
	C197.247925,490.365967 195.297821,484.650299 195.888489,477.941406 
	C196.402786,472.100006 198.797775,469.633392 204.511200,469.040405 
	C212.673813,468.193176 218.531891,472.283569 223.954239,477.476715 
	C228.886398,482.200439 233.597092,487.162537 238.644958,491.756317 
	C243.661682,496.321777 249.714218,498.994812 256.314697,500.432068 
	C255.913239,499.504150 255.276382,499.014862 254.640839,498.523865 
	C224.816376,475.482178 208.681854,445.266174 209.109879,407.440338 
	C209.355667,385.720947 213.987167,364.512939 223.832886,344.832947 
	C237.157654,318.198883 245.375015,289.913300 251.408829,260.897736 
	C253.729538,249.737930 255.018814,238.406647 258.205902,227.370880 
	C260.923676,217.960129 264.824554,209.349731 270.769806,201.763428 
	C268.934143,199.305817 267.244537,197.270721 265.802673,195.073090 
	C260.313385,186.706299 258.724030,177.343338 258.613708,167.513184 
	C258.516754,158.872284 258.253204,150.170532 255.091064,141.959366 
	C252.796356,136.000671 250.674057,135.436554 245.480408,138.874405 
	C233.773193,146.623779 223.217422,155.812469 212.873154,165.234146 
	C201.025482,176.025177 190.346664,187.925476 180.475754,200.541733 
	C177.060364,204.907028 177.368317,205.979050 182.030869,209.245453 
	C184.616470,211.056839 187.166855,212.937622 189.588593,214.960144 
	C196.520813,220.749710 196.884521,224.310013 191.760513,231.944199 
	C188.347839,237.028687 183.294510,240.398926 178.955917,244.506561 
	C176.317535,247.004471 175.416687,249.454086 176.963913,252.917816 
	C178.896484,257.244232 178.479752,261.659424 176.774170,266.033051 
	C175.507050,269.282379 174.459595,272.616699 173.237381,275.884399 
	C172.197998,278.663300 172.303314,281.431671 174.785675,283.101410 
	C177.280380,284.779449 180.229919,284.532715 182.712875,282.579102 
	C184.931549,280.833405 187.053482,278.962402 189.184677,277.108246 
	C197.277786,270.067139 201.329575,260.656372 204.868881,250.848129 
	C209.866302,236.999237 223.103165,234.048553 232.347183,244.945084 
	C237.368027,250.863464 242.231445,257.176483 244.647217,264.761047 
	C246.336761,270.065521 247.186462,275.531677 242.621582,280.942413 
M355.842346,165.140808 
	C367.680420,160.359909 380.057526,157.906693 392.748871,157.787018 
	C410.420013,157.620346 427.350555,161.622223 443.633545,168.405228 
	C446.304993,169.518082 448.850555,170.673462 451.459869,168.156982 
	C460.003113,159.917725 469.650513,159.500549 479.988525,164.285812 
	C481.688904,165.072876 483.420563,165.863571 484.881439,163.840027 
	C490.765625,155.689468 499.272888,153.997696 508.442596,154.861069 
	C521.629761,156.102722 533.376709,152.804382 545.333923,147.080292 
	C557.477417,141.267044 568.481812,132.960220 582.349426,130.198639 
	C580.279175,127.533295 577.950745,126.509674 575.831543,125.254028 
	C551.205078,110.662964 525.007568,99.929329 497.246765,92.881744 
	C474.913574,87.212067 452.319275,83.676208 429.268280,83.088440 
	C416.592957,82.765228 403.933228,83.230675 391.343781,84.478676 
	C378.780792,85.724060 366.324188,87.901665 353.978607,90.626007 
	C349.994446,91.505219 348.482330,93.274948 349.756195,97.704094 
	C351.300568,103.073891 354.846252,107.405266 356.482483,112.691765 
	C358.283844,118.511536 357.083374,123.557159 352.514557,127.529091 
	C341.105103,137.447906 327.338074,142.964447 313.500641,148.243805 
	C305.355835,151.351288 299.177490,157.180801 296.083191,164.514252 
	C292.144470,173.849121 290.664520,184.221420 288.037018,194.488632 
	C293.100006,194.940628 297.410309,197.001816 301.471130,199.596848 
	C303.890961,201.143219 305.422852,200.082397 307.003967,198.257431 
	C320.150635,183.083145 336.284882,172.276474 355.842346,165.140808 
M662.726746,376.143311 
	C650.953125,373.873657 642.391113,364.056519 646.088928,349.414551 
	C646.426331,348.078583 646.688477,346.815979 646.187073,345.514374 
	C644.276672,340.555359 642.636536,335.415161 638.967651,331.400604 
	C633.373535,325.279541 628.900635,317.622864 618.462708,318.861725 
	C611.958679,319.633667 611.456421,319.807922 614.132385,325.744598 
	C620.402100,339.653961 624.651123,354.044403 624.325134,369.505615 
	C624.160645,377.304230 624.118469,385.018799 622.516113,392.798828 
	C619.215027,408.826691 614.113464,423.886108 603.354126,436.555420 
	C602.011169,438.136749 601.453979,439.920258 600.940308,441.905914 
	C596.886230,457.577942 592.046265,472.909027 581.632080,485.822418 
	C578.780457,489.358429 577.651123,493.820801 576.191895,498.063446 
	C575.469238,500.164307 575.950378,501.829773 577.433105,503.527618 
	C581.933716,508.681274 585.903992,514.278748 589.111389,520.293091 
	C591.928772,525.575989 595.580933,528.517090 601.790039,527.676941 
	C603.593872,527.432861 605.387695,527.935852 607.179260,528.460510 
	C616.095703,531.071899 623.159851,536.434570 629.523926,542.976074 
	C633.582886,547.148376 635.759277,546.954956 638.913635,542.031921 
	C649.824097,525.003601 650.778503,505.947571 639.365845,488.652588 
	C632.817993,478.729767 623.842346,471.365082 613.932129,465.028717 
	C611.904724,463.732422 610.111938,462.245575 610.630066,459.422668 
	C611.138611,456.651886 613.394470,455.899628 615.613708,455.122070 
	C621.335388,453.117310 627.297180,452.655975 633.285217,452.540649 
	C653.089539,452.159302 667.659790,460.853149 677.453369,477.969574 
	C680.366943,483.061768 682.217468,488.567993 684.463623,493.926605 
	C686.434326,498.628021 687.408752,498.800720 691.025452,495.225006 
	C691.969727,494.291412 692.913086,493.321259 693.665894,492.235535 
	C698.057251,485.901123 703.042969,480.165070 709.395203,475.677399 
	C712.789551,473.279388 714.728699,469.902100 715.707825,465.815857 
	C717.679077,457.588501 719.665588,449.384338 721.315430,441.068695 
	C723.846680,428.310516 724.851379,415.446106 725.896790,402.549225 
	C726.165710,399.232056 725.279968,397.270935 721.580017,396.755585 
	C719.517273,396.468292 717.164673,395.396118 716.077087,393.542969 
	C711.322998,385.442291 702.346191,384.237976 695.071777,380.261383 
	C693.700867,379.511932 692.216125,379.517548 690.723083,379.352570 
	C681.669067,378.352020 672.623352,377.276367 662.726746,376.143311 
M283.456635,241.070221 
	C286.490692,231.685074 290.669464,222.840210 295.705231,214.358231 
	C298.457458,209.722549 297.695557,207.769897 292.909851,205.372559 
	C287.642242,202.733810 281.900452,203.788971 277.395386,208.374283 
	C274.081116,211.747604 271.872223,215.856888 270.079590,220.189331 
	C263.973846,234.945816 262.617310,250.813873 259.442963,266.245880 
	C254.738281,289.117462 247.935852,311.337769 238.847229,332.804779 
	C232.566010,347.640778 224.731689,361.820587 221.399384,377.819885 
	C216.632233,400.708282 215.749329,423.486237 224.370590,445.638824 
	C232.373322,466.202240 245.423462,483.126923 264.566193,494.484558 
	C279.872711,503.566162 301.838196,497.202911 310.419739,482.163696 
	C312.006378,479.383087 312.096436,477.467194 309.245728,475.423431 
	C303.553589,471.342499 298.512695,466.468658 293.451538,461.636139 
	C264.673492,434.157959 252.610565,400.686218 260.404266,361.614746 
	C265.735535,334.887939 269.758514,307.965363 274.821472,281.213257 
	C277.318512,268.019073 278.479523,254.543793 283.456635,241.070221 
M207.947800,267.277863 
	C203.249939,276.339111 196.081741,283.194550 188.283783,289.537567 
	C182.087402,294.577850 176.162155,295.070068 169.524292,290.781281 
	C164.747009,287.694641 162.524857,280.296265 164.597382,273.740051 
	C165.844086,269.796295 167.271545,265.899475 168.834564,262.070068 
	C169.654907,260.060211 169.637436,258.360413 168.760010,256.358734 
	C165.059341,247.916260 165.903259,244.423615 172.775757,238.121658 
	C176.210083,234.972443 179.624893,231.800369 182.988510,228.576004 
	C185.982193,225.706253 186.182861,222.949051 182.486435,220.417191 
	C180.290512,218.913132 178.003418,217.483780 176.045639,215.703735 
	C172.852646,212.800644 170.718414,213.545303 168.568069,216.977310 
	C161.320404,228.544724 154.280807,240.245071 148.120560,252.416702 
	C135.681870,276.993500 126.870865,302.850403 121.345650,329.860779 
	C117.143684,350.402344 116.471497,371.126953 117.255234,391.969971 
	C117.399223,395.799194 118.752182,398.785767 122.025337,401.302917 
	C129.719498,407.219849 136.416397,414.165741 141.365265,422.640259 
	C143.025955,425.484039 145.184021,427.883667 148.140915,429.536835 
	C144.750580,425.254974 141.347214,421.027130 138.880707,416.115936 
	C132.785721,403.979889 133.765106,396.766937 144.750946,388.859467 
	C156.193970,380.622925 166.880219,372.181274 173.709671,359.338837 
	C176.983521,353.182465 185.889511,353.596893 190.269577,359.060577 
	C190.899078,359.845795 191.021683,361.312866 192.769714,361.095703 
	C192.769714,360.395355 192.836517,359.734131 192.755051,359.091705 
	C192.609024,357.940308 192.360016,356.802429 192.177963,355.655090 
	C190.189560,343.122284 191.363892,331.932312 204.546097,325.583099 
	C207.377487,324.219330 209.906006,322.239990 212.676392,320.732300 
	C214.986618,319.475098 216.089233,317.773468 215.920227,315.105804 
	C215.741409,312.282776 215.995956,309.421631 215.679459,306.620270 
	C215.076202,301.280853 217.111313,297.205383 220.264328,292.950043 
	C224.552444,287.162720 229.512558,282.035858 234.254318,276.694672 
	C236.776993,273.853088 237.081696,271.178528 235.941177,267.570129 
	C233.966095,261.321411 229.686035,256.595673 226.015945,251.540222 
	C221.823608,245.765396 216.225616,246.929688 213.476166,253.642456 
	C211.711700,257.950439 209.950089,262.259552 207.947800,267.277863 
M532.395813,242.096634 
	C519.918213,227.707062 509.493378,211.845947 499.099823,195.946091 
	C493.618256,187.560486 487.504059,179.644669 478.999146,173.969894 
	C475.467682,171.613586 471.720856,169.940613 467.349274,170.170532 
	C464.233734,170.334381 460.946259,170.934875 459.853607,174.090546 
	C458.708832,177.396713 462.224487,178.432755 464.203552,179.927582 
	C478.147644,190.460068 490.215210,202.702850 499.657501,217.507874 
	C514.518860,240.809616 528.627258,264.598572 544.317505,287.362671 
	C553.770752,301.077881 563.638000,314.497711 568.375488,330.807251 
	C571.632141,342.018646 574.760315,353.346313 574.028625,365.087982 
	C573.482666,373.848175 571.754578,382.568329 569.150879,391.018402 
	C564.739258,405.335968 559.673950,419.394653 550.934326,431.761444 
	C549.148743,434.288025 550.456360,435.313354 552.277039,436.481842 
	C566.813904,445.811218 586.252991,443.994202 597.471130,430.456696 
	C604.510986,421.961304 608.768921,412.082397 611.819885,401.619202 
	C617.603455,381.784607 617.966187,361.892883 611.560730,342.166962 
	C603.200012,316.419708 587.618103,295.602264 567.074707,278.258392 
	C554.433044,267.585663 543.367371,255.371811 532.395813,242.096634 
M638.599121,936.721008 
	C649.413391,938.863281 660.055542,938.173218 670.550171,934.831970 
	C683.385498,930.745483 690.705383,921.532898 693.559937,908.866882 
	C696.667969,895.076599 695.230530,882.373596 682.743652,872.989014 
	C677.495667,869.044861 671.839844,865.998108 665.925720,863.293152 
	C662.604736,861.774231 659.160767,860.406494 656.106445,858.449158 
	C651.288391,855.361389 651.826172,850.104065 656.929810,847.457886 
	C659.564819,846.091675 662.329956,845.609985 665.154785,846.391296 
	C669.776123,847.669617 674.664795,848.209167 678.897827,850.614990 
	C681.962830,852.356812 683.446716,850.961853 684.790100,848.433044 
	C687.220276,843.858215 689.132385,839.042419 690.505615,834.094604 
	C692.516602,826.849243 690.958374,824.275146 683.714172,821.852844 
	C671.961792,817.922974 659.811523,817.381653 647.716858,819.046265 
	C622.349487,822.537720 608.763855,844.925415 618.425598,869.603455 
	C622.830017,880.853271 632.469666,885.965515 642.512207,890.732788 
	C646.543640,892.646484 650.992676,893.948730 654.067749,897.446777 
	C657.510315,901.362915 655.835327,906.364319 650.675415,907.128174 
	C647.086914,907.659546 643.420471,907.620728 639.801819,906.506897 
	C634.011536,904.724670 628.704468,901.977661 623.649963,898.751099 
	C620.437012,896.700073 618.518311,897.576660 616.895996,900.707520 
	C614.560913,905.213928 613.518433,910.069153 612.612000,914.992432 
	C611.578308,920.606079 613.366150,925.346313 617.610168,928.835266 
	C623.385986,933.583557 630.181396,936.186035 638.599121,936.721008 
M364.178040,819.372437 
	C355.361328,819.462463 346.527222,818.852600 337.732361,819.781921 
	C331.245087,820.467285 330.898651,820.909729 330.896973,827.575073 
	C330.888458,861.033936 330.904236,894.492798 330.943146,927.951660 
	C330.950928,934.647034 332.209930,936.122864 338.945160,936.546082 
	C345.758881,936.974121 352.540161,936.771362 359.292633,935.198669 
	C362.526093,934.445557 363.746826,933.164246 363.670471,929.878662 
	C363.496429,922.391724 363.638031,914.897888 363.591888,907.407227 
	C363.575714,904.782593 364.078735,902.601685 367.315796,902.797241 
	C371.391235,903.043457 375.183105,901.693176 379.106384,901.050903 
	C400.105469,897.613159 412.903503,885.161072 415.399841,864.478455 
	C417.815948,844.460327 409.443451,826.295227 386.864288,821.685791 
	C379.582397,820.199219 372.282593,820.843994 364.178040,819.372437 
M961.255615,857.187988 
	C949.398926,849.855408 937.092651,850.347595 925.109558,856.213562 
	C919.951599,858.738525 916.036255,860.188721 911.624939,855.431458 
	C910.364868,854.072632 908.159058,853.473328 906.283569,852.824036 
	C899.741882,850.559021 893.463013,852.372070 890.166382,857.219177 
	C886.502136,862.606873 886.555298,868.584106 887.720886,874.537964 
	C888.207642,877.024292 889.596130,879.944031 892.945740,879.732910 
	C898.583557,879.377441 899.411804,882.321350 899.385010,887.146973 
	C899.246399,912.142090 899.413513,937.138855 899.414673,962.135010 
	C899.414795,965.000793 899.409729,967.535950 903.247559,967.762878 
	C910.244263,968.176697 917.232788,968.189636 924.222595,967.680603 
	C927.482178,967.443176 928.864502,965.740234 928.759888,962.433228 
	C928.628418,958.272949 928.826843,954.103027 928.840027,949.937195 
	C928.882019,936.729004 928.874817,936.652649 941.881165,936.737854 
	C951.646973,936.801819 959.560364,933.118408 966.093018,925.902954 
	C973.183594,918.071167 975.717224,908.460632 976.391296,898.461060 
	C977.439697,882.907410 975.574890,868.051086 961.255615,857.187988 
M769.511963,854.858765 
	C761.047241,851.305298 752.401978,851.231384 743.683838,853.678772 
	C740.144714,854.672241 738.705383,853.498840 738.730225,849.875366 
	C738.787231,841.547180 738.611084,833.216553 738.734009,824.889954 
	C738.792053,820.952454 737.137268,819.119080 733.250793,818.732117 
	C727.590576,818.168640 721.964478,818.328430 716.297791,818.605347 
	C711.718933,818.829163 709.982056,820.609253 710.002808,825.342712 
	C710.155823,860.156494 710.158630,894.971619 710.000427,929.785400 
	C709.979431,934.401306 712.100220,936.261597 716.097656,936.469604 
	C721.247803,936.737610 726.422974,936.770996 731.578796,936.617432 
	C737.872925,936.429932 738.725098,935.482422 738.748901,929.210144 
	C738.805786,914.218384 738.747986,899.226074 738.838806,884.234619 
	C738.863708,880.128052 742.974792,876.667419 747.779114,876.799438 
	C751.948303,876.914062 754.053589,879.449585 754.243286,883.560547 
	C754.335388,885.555908 754.359009,887.556274 754.353149,889.554138 
	C754.313782,903.043091 754.136902,916.531738 754.889282,930.013062 
	C755.041443,932.739746 755.383179,935.069336 758.608887,935.535400 
	C765.211121,936.489441 771.806824,937.178955 778.496887,936.149109 
	C781.755371,935.647461 782.990601,934.098145 782.973938,930.822815 
	C782.882324,912.833191 783.302185,894.831726 782.770142,876.857300 
	C782.502014,867.801880 779.491699,859.443909 769.511963,854.858765 
M874.209839,876.261841 
	C871.142944,867.144592 865.327454,860.480286 856.775330,855.993347 
	C848.551331,851.678650 839.783081,851.805115 830.962097,852.291809 
	C822.917236,852.735596 815.924683,855.842712 809.638916,860.942139 
	C795.175049,872.676392 793.781799,898.171692 799.487122,913.781860 
	C805.191528,929.389648 817.331360,936.581055 833.149170,937.673157 
	C848.367798,938.723999 862.998901,934.067810 871.218140,919.786682 
	C879.019409,906.231812 879.320496,891.698120 874.209839,876.261841 
M439.329712,928.175842 
	C452.822754,939.359253 468.299622,939.152283 484.213501,935.768982 
	C487.739960,935.019287 491.144989,933.483765 494.451263,931.971802 
	C497.963806,930.365417 499.088318,927.256409 498.175354,923.642517 
	C497.570160,921.246887 496.412140,918.991638 495.511139,916.669800 
	C494.250427,913.420959 492.173401,912.497864 488.810333,913.823120 
	C482.872742,916.162903 476.599640,917.170410 470.257721,917.254456 
	C466.302643,917.306885 462.204865,917.070251 459.186279,913.784302 
	C457.833527,912.311829 457.391693,910.559265 457.940735,908.687866 
	C458.550812,906.608276 460.429260,906.757751 462.075165,906.737976 
	C467.404449,906.674011 472.794067,907.160034 478.050507,906.524719 
	C486.449127,905.509644 494.583832,903.067078 499.006561,894.992065 
	C505.986603,882.247864 502.857666,864.219238 487.631561,856.379700 
	C479.631592,852.260620 471.108215,851.881226 462.409637,852.214355 
	C452.240479,852.603821 443.798584,856.717163 436.880127,864.038086 
	C430.090668,871.222717 426.905609,879.910278 425.964081,889.685913 
	C424.551422,904.353394 427.352844,917.459351 439.329712,928.175842 
M555.601501,931.043701 
	C555.603699,914.732910 555.594055,898.422119 555.613831,882.111328 
	C555.621887,875.506897 556.042114,875.165710 562.718994,875.042542 
	C564.970215,875.001099 567.907410,875.979309 569.212952,873.656128 
	C572.235229,868.278076 572.123169,862.474792 569.982727,856.769531 
	C568.314392,852.322876 564.263977,854.716064 561.298889,853.995178 
	C560.826111,853.880188 560.300964,853.928772 559.805298,853.968079 
	C555.062927,854.343628 553.003723,852.369263 552.634277,847.412598 
	C551.740173,835.417480 551.234253,835.174316 538.898926,835.108398 
	C537.734314,835.102173 536.568787,835.126282 535.404907,835.168884 
	C524.576050,835.564270 524.390259,835.756897 524.267883,846.583923 
	C524.195129,853.024292 523.909668,853.412354 517.641907,853.669434 
	C514.111206,853.814331 511.943848,854.927185 512.156372,858.970764 
	C512.339417,862.453125 512.284119,865.959656 512.121216,869.445496 
	C511.932220,873.489624 513.646729,875.401184 517.724976,874.987610 
	C522.831177,874.469849 524.369507,876.959961 524.314392,881.796326 
	C524.130554,897.938538 524.339905,914.085083 524.176514,930.227722 
	C524.131653,934.654541 525.732849,936.745544 530.210571,936.699158 
	C537.033569,936.628540 543.858154,936.654785 550.681519,936.708801 
	C553.966553,936.734741 555.697021,935.315979 555.601501,931.043701 
M252.618317,549.874512 
	C263.789032,549.842041 274.831146,550.179749 285.754242,553.418152 
	C291.733704,555.190918 297.995605,553.248047 303.533234,550.250732 
	C307.280060,548.222717 308.115417,544.938049 305.667511,541.407349 
	C301.094604,534.811584 295.951996,528.853699 288.649109,524.900696 
	C276.637939,518.399048 264.568115,512.220825 251.338120,508.405426 
	C239.950775,505.121429 231.293076,497.527466 223.327942,489.037842 
	C219.930099,485.416229 216.743896,481.451019 212.117249,479.220673 
	C209.958954,478.180206 207.535660,477.434967 205.559113,479.295898 
	C203.479797,481.253540 204.351105,483.646698 205.606689,485.709198 
	C207.504822,488.827148 209.724289,491.753448 211.556885,494.906677 
	C220.383270,510.093506 220.442841,525.877075 214.519409,542.005981 
	C213.660049,544.345886 212.859741,546.674011 212.938538,549.557312 
	C215.924408,550.996399 219.018921,551.620789 222.455276,551.436340 
	C232.189484,550.913635 242.008514,552.008667 252.618317,549.874512 
M322.930267,134.397705 
	C330.526215,131.327057 337.543640,127.251526 344.233673,122.524353 
	C348.134827,119.767792 348.523651,116.491074 346.553864,112.560928 
	C344.475342,108.413925 341.837952,104.511230 340.946320,99.851097 
	C340.056519,95.200348 337.399750,94.447441 333.289154,95.991753 
	C328.941467,97.625130 324.436798,98.838432 320.078033,100.445023 
	C300.072235,107.818939 280.575623,116.235764 262.922974,128.440247 
	C260.569885,130.067123 259.853271,131.663513 261.378815,134.216721 
	C263.265289,137.373978 264.614624,140.747009 265.290466,144.409470 
	C266.982056,153.576675 268.529572,162.759369 268.228394,172.123810 
	C268.039978,177.980438 269.717499,183.269028 272.671692,188.211899 
	C273.567841,189.711365 274.138489,191.872437 276.522949,191.516464 
	C278.621185,191.203217 279.199097,189.439636 279.883514,187.638107 
	C282.723083,180.163986 284.143066,172.303055 286.343658,164.657349 
	C289.607513,153.317459 297.500641,146.015442 307.496613,140.767578 
	C312.181152,138.308228 317.293152,136.663162 322.930267,134.397705 
M665.475098,475.021484 
	C656.406250,463.179626 637.952759,458.317871 627.794434,462.751862 
	C628.224854,465.170135 630.422424,466.056671 631.987244,467.416168 
	C655.157654,487.546600 663.077942,514.088135 648.975708,542.583618 
	C647.214050,546.143433 644.804810,549.377441 642.833130,552.840637 
	C641.712463,554.809143 641.335571,557.149658 642.838562,558.951477 
	C644.418274,560.845215 646.466736,559.830627 648.276550,558.842346 
	C676.751160,543.292603 688.051392,504.437073 665.475098,475.021484 
M532.567139,454.066254 
	C531.765625,454.912689 530.937622,455.735718 530.167175,456.609558 
	C526.484802,460.786041 526.456055,461.799500 531.339783,464.463440 
	C543.109314,470.883240 553.730469,478.817719 563.523315,487.917358 
	C566.392273,490.583252 568.670776,490.285339 570.751160,486.844788 
	C574.526245,480.601685 578.619507,474.548492 582.312744,468.259155 
	C585.974731,462.023010 588.306030,455.261414 589.859131,447.326691 
	C573.992188,452.188354 559.557434,451.215576 546.010742,442.736908 
	C544.094055,441.537262 542.588806,442.606689 541.271973,444.154816 
	C538.576294,447.324005 535.796753,450.421844 532.567139,454.066254 
M290.472412,515.962891 
	C297.994568,518.912598 303.418335,524.584961 308.911530,530.168945 
	C312.992371,534.317200 313.400604,534.324036 316.246216,529.129517 
	C320.004517,522.269043 323.874664,515.475403 328.570587,509.215576 
	C332.427917,504.073608 336.555634,499.134460 341.088867,493.446198 
	C334.482178,490.057068 328.469666,486.938019 322.422119,483.888458 
	C320.161591,482.748505 319.077332,484.372406 318.073120,485.989532 
	C310.857758,497.608704 299.927948,503.807281 287.013336,506.814697 
	C283.369141,507.663330 279.467712,507.407288 274.851410,507.713074 
	C280.423828,510.674713 285.110382,513.165588 290.472412,515.962891 
M424.966675,542.550903 
	C428.442841,549.775757 433.363373,555.133179 442.152435,556.104187 
	C441.633667,554.119873 438.572845,554.996155 439.061340,552.789856 
	C440.483429,550.935730 443.273834,552.987183 444.365784,550.550537 
	C443.771790,548.483032 441.491882,548.472473 440.270813,547.152771 
	C437.842529,544.528442 436.871796,541.840576 439.280426,538.714233 
	C441.998535,535.186279 446.482178,534.227600 450.382935,536.435120 
	C453.514252,538.207275 456.263275,540.995544 454.062103,544.426697 
	C451.191132,548.901855 452.787109,551.913147 455.486755,555.189392 
	C463.987061,552.381104 470.595856,543.248169 470.680145,534.297302 
	C470.704468,531.716248 469.570404,530.025208 466.895447,530.077087 
	C453.242798,530.341675 439.673065,531.132141 427.054962,537.226746 
	C425.024353,538.207520 423.693726,539.416260 424.966675,542.550903 
M401.399231,507.336060 
	C389.829498,506.467651 378.404236,504.603485 366.600739,502.591309 
	C366.766418,503.470276 367.538086,503.512512 368.057800,503.896088 
	C379.318604,512.208191 392.225586,516.250610 405.798309,518.691040 
	C415.953339,520.516968 423.645905,516.978455 429.997284,507.367279 
	C420.273895,507.367279 411.298309,507.367279 401.399231,507.336060 
M460.779785,514.623108 
	C446.178070,505.740540 431.224945,511.876404 424.867493,521.993469 
	C423.339996,524.424316 422.406616,526.913269 424.234619,530.622192 
	C436.990631,520.480103 452.024536,522.134644 467.136902,522.101135 
	C466.015137,518.186401 463.506470,516.767334 460.779785,514.623108 
M466.363800,504.925446 
	C474.375366,500.845917 481.906250,496.136902 487.615173,488.984222 
	C476.514465,494.358917 465.155243,498.990875 453.050629,504.026581 
	C457.858582,507.017303 461.656982,507.742279 466.363800,504.925446 
M510.718872,197.810272 
	C515.386414,204.780289 518.475830,204.914413 522.988403,198.504547 
	C524.844055,195.868744 524.622192,193.884659 521.661926,192.528107 
	C516.976135,190.380859 512.071472,189.428543 506.761871,189.949066 
	C507.013245,193.087006 509.160950,194.901413 510.718872,197.810272 
z"/>
<path fill="#000000" opacity="1.000000" stroke="none" 
	d="
M367.911438,672.775757 
	C377.296967,668.686462 381.927551,670.975464 384.204773,680.631714 
	C384.679901,682.646362 385.693726,684.269287 386.798950,686.473572 
	C389.703003,684.397461 390.852966,681.384277 392.529938,678.849915 
	C395.772308,673.950012 399.800262,670.189087 405.736542,668.947998 
	C410.482208,667.955811 414.338654,669.729858 415.525085,674.374512 
	C419.297089,689.141113 424.181427,703.703613 423.348846,719.344910 
	C423.096802,724.079590 421.968445,728.544434 421.040222,733.073975 
	C420.266876,736.847595 413.939972,739.389099 409.305145,738.257874 
	C405.316772,737.284424 403.912506,734.130920 404.869324,729.172607 
	C407.392792,716.095947 404.691193,703.596436 400.757629,689.949402 
	C396.507416,697.171143 395.145477,704.014587 393.436005,710.641724 
	C392.536591,714.128540 391.342896,717.564209 390.901428,721.251160 
	C390.314850,726.149963 384.473267,730.332642 379.644440,730.121277 
	C374.031494,729.875610 372.903442,725.612061 371.797760,721.287231 
	C370.311432,715.473877 371.119293,709.434326 370.162323,702.500000 
	C367.577393,706.208923 367.607727,709.734985 366.553070,712.835388 
	C364.736298,718.176270 363.606598,723.744446 361.253998,728.915344 
	C359.242096,733.337341 355.894531,735.544861 350.978210,735.230591 
	C346.472565,734.942627 344.782013,731.652588 343.760437,728.043213 
	C340.098358,715.104736 337.771179,701.886597 336.793579,688.495483 
	C336.358337,682.533264 339.690948,679.247131 345.505005,678.295776 
	C351.167419,677.369263 354.392609,679.681946 355.289886,685.429871 
	C355.697754,688.042480 355.920319,690.684021 356.359131,694.445862 
	C361.314758,687.161560 361.651947,678.530029 367.911438,672.775757 
z"/>
<path fill="#000000" opacity="1.000000" stroke="none" 
	d="
M528.192749,655.752136 
	C526.709412,652.002930 526.749084,648.505920 526.805420,644.998291 
	C526.912109,638.354980 531.388855,632.805115 536.738342,632.733643 
	C541.370056,632.671753 546.302429,638.127808 546.063171,644.405457 
	C545.704407,653.819885 548.004944,662.526001 551.437866,671.072021 
	C552.337036,673.310486 552.937744,675.867188 555.786682,677.090759 
	C558.908264,672.924683 559.334229,667.865173 560.608276,663.168518 
	C561.782227,658.840942 562.871948,654.485901 564.759216,650.428589 
	C568.676453,642.007019 575.715149,640.527344 582.979675,646.461914 
	C586.903320,649.667175 589.739380,653.757874 592.372925,658.031128 
	C593.382507,659.669250 593.876587,661.718445 596.172058,663.113953 
	C598.993835,657.249084 598.053650,651.390503 597.059692,645.614563 
	C595.771729,638.130493 592.755798,631.006165 592.678101,623.243164 
	C592.627197,618.157837 595.682251,615.771545 599.693298,614.021912 
	C603.646729,612.297302 605.911072,615.223083 608.250183,617.491272 
	C611.844299,620.976440 612.501343,625.784485 613.063965,630.348450 
	C614.627502,643.032349 616.769043,655.737549 613.779907,668.535095 
	C612.487000,674.070618 611.294189,679.616333 606.995422,683.782104 
	C602.764648,687.882019 599.057190,688.236023 593.935059,685.364502 
	C589.236816,682.730591 586.498718,678.302063 583.356689,674.235168 
	C581.239868,671.495361 579.362793,668.544678 575.953308,666.349915 
	C573.317505,670.483948 572.862549,675.182251 571.311890,679.431213 
	C569.828735,683.494934 568.285828,687.495239 566.201660,691.290344 
	C563.987305,695.322449 560.490173,697.736877 556.285339,699.209595 
	C552.316406,700.599792 548.978333,700.030396 546.032776,696.524170 
	C536.163208,684.775879 529.594299,671.654663 528.192749,655.752136 
z"/>
<path fill="#000000" opacity="1.000000" stroke="none" 
	d="
M219.288574,667.206665 
	C226.135101,664.076416 226.908829,664.309021 230.828583,670.403809 
	C239.431458,683.780518 244.504166,698.815796 250.908936,713.223999 
	C251.523254,714.606018 251.878525,716.389526 253.259033,716.932373 
	C258.210693,718.879395 258.545868,722.835266 258.138580,727.200928 
	C257.706970,731.826477 260.200745,735.496033 262.041290,739.379089 
	C263.383118,742.209900 265.147034,744.823547 265.257324,748.171265 
	C265.375641,751.762634 264.272400,754.131714 260.672729,755.487061 
	C256.901764,756.906860 254.144745,755.795593 251.869797,752.927368 
	C249.248688,749.622620 248.221695,745.509827 246.545609,741.727600 
	C244.063339,736.126160 240.047241,733.110840 235.891739,733.728149 
	C227.722458,734.941711 222.958679,739.163574 222.414154,746.056702 
	C222.099792,750.036011 222.180374,753.997925 220.589584,757.815369 
	C219.222290,761.096558 217.032959,763.042297 213.515747,763.156555 
	C210.012970,763.270447 208.829636,760.729675 207.797623,757.891296 
	C206.850159,755.285522 206.504623,752.626038 207.052338,750.028076 
	C210.220291,735.001892 209.195068,719.458252 212.213898,704.535217 
	C214.243256,694.503418 212.053894,684.218872 215.491470,674.407715 
	C216.388901,671.846375 217.185135,669.448975 219.288574,667.206665 
M233.886093,708.699036 
	C232.048279,705.302490 230.498962,701.693481 225.860489,698.108765 
	C227.144485,706.350708 224.853409,712.912170 224.247940,719.707520 
	C224.074646,721.652344 225.058044,722.707825 227.008682,723.149048 
	C233.818161,724.689453 237.659943,720.754089 235.729080,714.104187 
	C235.268890,712.519287 234.714722,710.961792 233.886093,708.699036 
z"/>
<path fill="#000000" opacity="1.000000" stroke="none" 
	d="
M451.534088,654.070557 
	C467.402557,652.962463 474.220032,662.968140 474.671814,676.985168 
	C475.093323,690.063477 475.018890,703.208618 474.999023,716.322510 
	C474.986389,724.680237 470.589111,726.824463 463.637329,722.306946 
	C461.785858,721.103760 459.867096,721.196167 457.893768,721.154358 
	C452.100128,721.031494 446.364319,721.260315 440.640991,719.419189 
	C430.861450,716.273193 425.018616,705.825256 428.269928,696.062927 
	C431.782471,685.516052 439.394196,679.477051 449.938904,676.782043 
	C452.347076,676.166626 454.735596,675.458252 457.166565,674.953491 
	C458.903351,674.592896 459.893768,673.824707 459.674164,671.939880 
	C459.463226,670.129639 458.333435,669.440552 456.625244,669.286377 
	C453.320740,668.988098 450.396820,670.162231 447.557129,671.581970 
	C445.477417,672.621643 443.514191,673.891907 441.455048,674.975830 
	C436.064423,677.813354 433.700562,677.458984 431.214203,673.522583 
	C427.822632,668.153076 428.319244,665.615051 433.370117,661.698730 
	C438.630859,657.619629 444.893677,655.946655 451.534088,654.070557 
M450.683716,706.976990 
	C453.000610,706.944397 455.318298,706.939331 457.634125,706.870850 
	C459.580688,706.813354 460.750671,705.855591 460.773407,703.818481 
	C460.815918,700.012268 460.881348,696.204651 460.817963,692.399597 
	C460.774445,689.785278 459.459442,688.806152 456.902771,689.780151 
	C453.658203,691.016174 450.308624,692.024597 447.178497,693.500488 
	C443.389313,695.287109 440.285187,697.951843 441.340546,702.729065 
	C442.350647,707.301208 446.396057,706.640198 450.683716,706.976990 
z"/>
<path fill="#000000" opacity="1.000000" stroke="none" 
	d="
M743.672852,622.649597 
	C747.910095,619.393372 751.699829,616.087524 755.892151,613.412598 
	C761.317078,609.951111 763.272827,605.167053 762.758972,599.031616 
	C762.532349,596.325806 762.940552,593.677979 764.035095,591.222656 
	C765.771851,587.326599 770.593262,585.156494 774.458313,586.533569 
	C778.365662,587.925720 779.877502,590.921021 778.947998,594.845459 
	C774.949707,611.725098 778.066833,628.186890 781.790955,644.593628 
	C783.070557,650.231140 784.712219,655.798523 786.452271,661.314697 
	C787.423279,664.392883 786.598022,666.470947 784.006104,668.089478 
	C781.356445,669.743958 778.715088,669.966370 776.145752,667.959229 
	C775.363281,667.347961 774.570190,666.683838 773.990112,665.891479 
	C771.462097,662.438843 768.638428,661.969116 764.459656,663.409485 
	C751.358459,667.925476 731.950256,652.870178 732.990906,639.211853 
	C733.539917,632.006348 738.117554,627.169128 743.672852,622.649597 
M756.432068,627.908752 
	C752.629883,630.124146 748.701721,632.421631 749.238953,637.641968 
	C749.747925,642.589294 753.095642,645.477539 757.413940,647.483337 
	C759.456543,648.432129 761.476501,649.297729 763.508545,647.852478 
	C765.692444,646.299316 764.108582,644.241699 763.975708,642.363037 
	C763.776794,639.551758 763.745605,636.728882 763.623169,633.911865 
	C763.509583,631.298706 763.930420,628.587341 762.076843,625.838501 
	C760.447266,626.402039 758.760071,626.985535 756.432068,627.908752 
z"/>
<path fill="#000000" opacity="1.000000" stroke="none" 
	d="
M290.218384,716.038330 
	C289.796051,714.622803 290.101959,713.320618 288.518707,712.221619 
	C285.410278,718.237610 285.180878,724.966675 283.119385,731.118103 
	C282.383545,733.313843 281.829132,735.570312 281.097229,737.767517 
	C279.959503,741.182983 277.409851,742.868896 273.932617,742.924072 
	C270.299347,742.981750 268.746887,740.296143 267.703369,737.379822 
	C267.036255,735.515503 266.473938,733.525757 266.364594,731.564392 
	C265.774261,720.973633 261.418976,710.957458 261.713470,700.229675 
	C261.827087,696.091003 263.752808,693.623535 267.730896,692.924072 
	C272.639557,692.060974 275.767853,694.619263 276.141296,699.630737 
	C276.251129,701.104858 276.158173,702.594116 276.158173,705.166504 
	C278.360382,701.568848 279.806915,698.690857 281.724243,696.171082 
	C287.185242,688.994324 293.669373,689.328125 298.261871,696.890442 
	C304.784454,707.630981 306.756866,719.813904 309.270844,731.822510 
	C309.507660,732.953796 309.674866,734.109253 310.023529,735.205994 
	C311.505676,739.867981 309.759399,742.773315 304.553864,744.200562 
	C299.516754,745.581604 296.955933,744.035461 295.784760,739.070190 
	C293.999573,731.501709 292.129974,723.953064 290.218384,716.038330 
z"/>
<path fill="#000000" opacity="1.000000" stroke="none" 
	d="
M685.011475,618.669067 
	C687.425110,616.748047 689.889709,616.556946 692.432312,616.701660 
	C699.955933,617.129700 702.265808,621.417053 697.950928,627.547913 
	C694.507507,632.440613 690.466187,636.907715 686.845703,641.681580 
	C681.378357,648.890808 681.167603,660.002197 686.199158,667.504761 
	C689.715088,672.747375 688.644775,680.692993 683.867188,684.816406 
	C678.355347,689.573425 670.600464,686.631714 669.047485,679.129700 
	C667.403381,671.187378 666.139526,663.190369 664.007080,655.320190 
	C661.998901,647.908447 659.962891,640.628113 656.113647,633.932983 
	C654.073120,630.383911 653.762573,626.558105 655.795898,622.971436 
	C659.170715,617.018127 667.362183,617.203308 671.607727,623.234619 
	C672.742310,624.846497 673.623962,626.636414 674.733337,628.535645 
	C679.693420,626.759033 680.981689,621.547363 685.011475,618.669067 
z"/>
<path fill="#000000" opacity="1.000000" stroke="none" 
	d="
M480.691528,677.119507 
	C479.783356,667.064453 477.564575,657.769165 474.704834,648.561340 
	C472.732880,642.212036 469.545105,635.794250 473.416168,628.930969 
	C475.963684,624.414368 479.215942,622.664307 484.152435,623.875916 
	C488.615295,624.971252 488.837952,628.556580 489.318817,632.408691 
	C490.465790,641.597290 492.500519,650.680115 493.519257,659.878479 
	C495.264099,675.633057 501.533600,690.734924 500.097168,706.945312 
	C499.458893,714.148621 496.743622,717.533752 490.883453,717.604431 
	C485.796906,717.665710 481.969849,714.413879 482.370972,709.336365 
	C483.215790,698.641296 482.002167,688.119568 480.691528,677.119507 
z"/>
<path fill="#000000" opacity="1.000000" stroke="none" 
	d="
M707.850220,628.338379 
	C706.299377,618.393188 701.392029,609.779602 700.515442,600.107300 
	C699.817688,592.407959 702.882202,587.318665 708.834778,586.329102 
	C714.235535,585.431335 717.702637,588.100159 718.202209,593.960815 
	C720.048096,615.613892 724.698120,636.804871 728.666138,658.106201 
	C729.833130,664.370911 729.098328,670.408081 726.824097,676.183716 
	C725.206604,680.291626 721.323303,680.657166 717.502380,680.086365 
	C713.702881,679.518799 711.057800,676.881165 711.447205,673.292908 
	C713.086426,658.187561 709.118042,643.604187 707.850220,628.338379 
z"/>
<path fill="#000000" opacity="1.000000" stroke="none" 
	d="
M656.161255,655.687378 
	C654.948669,658.850525 653.829407,661.617188 652.616882,664.342285 
	C646.604187,677.855713 632.975098,677.481873 624.103943,666.872742 
	C616.513367,657.795105 615.537048,647.383301 620.507446,636.534241 
	C621.961304,633.360962 623.349365,630.157288 624.821777,626.992798 
	C627.197510,621.886902 632.126831,619.695923 637.630737,621.247864 
	C648.523743,624.319397 658.177734,638.965210 656.800415,650.327942 
	C656.600708,651.975464 656.407593,653.623718 656.161255,655.687378 
M633.810486,640.348389 
	C631.642456,642.630493 630.888855,645.580750 630.304871,648.493958 
	C629.614319,651.938843 630.627319,654.726440 634.296143,656.061462 
	C636.878784,657.001221 639.480530,656.979675 641.239197,654.910095 
	C643.831360,651.859680 643.141663,648.222961 641.365906,645.086914 
	C639.880859,642.464355 639.099731,638.305969 633.810486,640.348389 
z"/>
<path fill="#000000" opacity="1.000000" stroke="none" 
	d="
M323.233948,736.039612 
	C319.148254,733.553772 318.707367,729.532532 318.044342,725.853760 
	C316.160400,715.401001 314.142578,704.910950 315.114258,694.210388 
	C315.764465,687.050110 321.174194,683.564636 327.773621,685.687317 
	C332.072998,687.070312 333.557953,689.714600 332.419128,694.109863 
	C330.105042,703.040955 332.388367,711.853882 333.226440,720.679260 
	C333.421967,722.738281 334.156311,724.847229 334.525391,726.974121 
	C335.862885,734.681641 331.581573,738.349426 323.233948,736.039612 
z"/>
<path fill="#000000" opacity="1.000000" stroke="none" 
	d="
M315.450684,676.902039 
	C311.682343,673.241699 310.390717,669.516052 313.514221,665.183350 
	C316.254425,661.382263 322.170258,659.487793 326.398438,661.283997 
	C329.848907,662.749817 331.555115,665.658203 330.815460,669.292053 
	C329.976288,673.414734 328.387695,677.424805 323.463043,678.216797 
	C320.879486,678.632141 318.156525,678.787537 315.450684,676.902039 
z"/>
<path fill="#000000" opacity="1.000000" stroke="none" 
	d="
M652.792725,677.392334 
	C658.073486,678.995972 659.839905,682.848694 659.639404,687.465881 
	C659.474548,691.263000 657.209656,694.072205 653.192017,694.600708 
	C648.509155,695.216553 646.227844,691.992920 644.728088,688.322815 
	C643.376648,685.015503 643.563843,681.684814 646.937378,679.486877 
	C648.579041,678.417297 650.343018,677.384216 652.792725,677.392334 
z"/>
<path fill="#000000" opacity="1.000000" stroke="none" 
	d="
M638.865356,695.832092 
	C635.437195,698.764526 632.228149,698.830261 629.315308,695.902039 
	C626.567749,693.139893 624.366882,689.908264 625.973816,685.768677 
	C627.479370,681.890503 630.696289,680.403198 634.734009,680.767700 
	C638.971558,681.150208 641.943787,686.276855 640.880371,691.507507 
	C640.594238,692.914917 639.734436,694.205811 638.865356,695.832092 
z"/>
<path fill="#000000" opacity="1.000000" stroke="none" 
	d="
M282.396729,676.255371 
	C281.292145,673.135437 281.270355,670.466492 284.108643,668.944702 
	C286.952606,667.419800 290.221405,667.018555 293.173676,668.446228 
	C296.205963,669.912720 295.563934,673.128784 295.008698,675.523804 
	C294.154236,679.209473 294.094482,684.515503 289.380096,684.978271 
	C284.412170,685.465820 283.888519,680.257690 282.396729,676.255371 
z"/>
<path fill="#000000" opacity="1.000000" stroke="none" 
	d="
M280.608765,689.459839 
	C276.109283,690.948608 269.078033,686.659058 267.382690,681.634338 
	C266.064087,677.726257 268.177643,675.317444 271.411438,673.600525 
	C273.335938,672.578674 275.418610,672.314514 276.876251,674.142029 
	C280.374390,678.527954 282.943268,683.267883 280.608765,689.459839 
z"/>
<path fill="#000000" opacity="1.000000" stroke="none" 
	d="
M310.878235,679.215576 
	C311.822998,683.711609 309.493988,687.419312 305.103851,688.845154 
	C302.245850,689.773376 299.824036,689.249756 298.346924,686.342712 
	C296.763611,683.226624 298.123138,675.866333 300.634155,674.241760 
	C302.422516,673.084717 304.187836,673.562561 305.735962,674.753601 
	C307.441589,676.065674 309.035767,677.522705 310.878235,679.215576 
z"/>
<path fill="#000000" opacity="1.000000" stroke="none" 
	d="
M468.682739,365.285522 
	C467.097382,363.211395 462.737274,362.631073 464.610992,359.691437 
	C466.378723,356.918060 469.351532,359.160400 471.686127,360.391510 
	C487.537292,368.750275 490.794983,385.754578 479.195984,400.421448 
	C475.029236,405.690247 470.137726,410.390564 463.793243,412.841278 
	C459.350647,414.557343 457.945465,417.760132 457.102905,421.871521 
	C455.504517,429.670959 454.168945,437.563049 451.929779,445.183197 
	C448.673828,456.263672 443.101440,465.621948 430.917450,469.176666 
	C422.733215,471.564453 415.856812,468.349915 409.204956,464.487671 
	C402.785950,460.760681 398.042969,455.051758 393.178345,449.561493 
	C391.410797,447.566620 389.406616,445.697357 388.035522,443.450409 
	C383.185547,435.502289 376.692993,432.842346 367.061279,432.766602 
	C354.509094,432.667908 341.119751,424.469757 339.443298,410.004791 
	C338.679596,403.415283 340.124359,397.154022 343.403290,391.337952 
	C344.100006,390.102142 344.769684,388.894196 346.422516,389.493835 
	C348.180695,390.131683 348.488251,391.729340 348.015808,393.225494 
	C346.832825,396.971893 346.936127,400.796417 347.033783,404.618744 
	C347.196869,411.004120 350.306946,415.512146 355.798035,418.734863 
	C370.347351,427.273895 396.928955,420.071777 403.297333,407.709595 
	C404.507080,405.361237 406.273834,403.296936 407.810547,401.120575 
	C412.235657,394.853485 413.567474,394.627258 419.515045,399.821014 
	C423.881836,403.634369 428.673828,406.628784 434.427094,407.423248 
	C447.701111,409.256378 467.209686,402.820007 474.884338,388.184143 
	C478.911469,380.504211 476.956024,373.317169 468.682739,365.285522 
z"/>
<path fill="#000000" opacity="1.000000" stroke="none" 
	d="
M482.319031,341.730743 
	C466.755524,342.656921 451.554718,344.057098 437.843994,335.230865 
	C422.415863,325.298920 414.717926,310.551270 411.006622,293.123260 
	C409.149139,284.400757 409.984802,275.898132 412.364288,267.517761 
	C418.335266,246.488312 441.140381,233.586487 463.433594,243.811478 
	C487.496246,254.848053 505.424500,270.866028 515.065491,295.741791 
	C522.715576,315.480621 516.408142,329.940063 496.684845,337.781189 
	C492.163361,339.578766 487.426239,340.452057 482.319031,341.730743 
M507.411713,324.855469 
	C512.113586,319.329926 512.374756,312.726410 511.979950,305.970947 
	C511.785614,302.645966 510.010223,301.916016 507.275330,303.384888 
	C504.560577,304.842957 501.963928,306.520874 498.655823,308.496307 
	C496.996674,302.435333 495.488464,296.877319 493.951447,291.327362 
	C492.902924,287.541382 493.126312,284.182953 496.336578,281.310394 
	C498.882996,279.031860 498.817810,276.428833 496.321014,273.968781 
	C492.643860,270.345795 489.099640,266.578796 485.285492,263.107574 
	C483.185822,261.196716 480.777527,259.982605 477.545959,261.117737 
	C471.410797,263.272766 468.217743,262.261902 464.140625,257.019012 
	C461.986053,254.248367 459.365723,252.496933 456.057495,251.509232 
	C453.030792,250.605576 449.935516,249.768692 447.102173,248.416779 
	C442.247955,246.100571 437.800568,246.729004 433.296265,249.248337 
	C427.990295,252.216034 424.530151,256.716888 421.887451,262.063568 
	C417.460938,271.019318 418.719971,281.100464 418.226532,290.270416 
	C417.352966,306.504181 425.135437,320.345398 439.082550,330.066864 
	C452.288788,339.271820 466.827637,337.541504 481.433228,335.966553 
	C485.478882,335.530304 488.806915,332.001282 492.367279,331.913849 
	C498.483215,331.763641 502.692352,328.909332 507.411713,324.855469 
z"/>
<path fill="#000000" opacity="1.000000" stroke="none" 
	d="
M406.008911,321.642242 
	C411.472076,321.627075 416.447662,321.321198 421.184265,323.498718 
	C427.173523,326.252167 429.633789,331.598511 427.279663,337.759674 
	C423.050385,348.828400 415.995300,356.779083 404.365295,361.011047 
	C394.002258,364.781982 374.902435,355.519562 370.071045,348.477386 
	C367.633026,344.923737 368.010712,339.382416 371.292358,336.076050 
	C380.687103,326.610474 391.857330,321.108887 406.008911,321.642242 
M380.853027,339.922699 
	C394.457794,339.190491 407.382416,335.846375 420.172852,330.182190 
	C406.308136,321.493988 381.195770,330.480438 376.565033,339.631256 
	C377.777649,339.733551 378.918335,339.829773 380.853027,339.922699 
z"/>
<path fill="#000000" opacity="1.000000" stroke="none" 
	d="
M344.950806,340.546936 
	C344.280853,342.136139 343.819824,343.398865 343.127808,344.518921 
	C338.932678,351.308929 332.846375,352.580566 326.313812,348.086700 
	C315.551453,340.683167 311.512329,320.228149 318.667358,309.363342 
	C321.969818,304.348633 327.022736,302.914215 332.409576,305.462189 
	C341.999939,309.998474 348.456055,325.338104 345.785126,337.258850 
	C345.567566,338.230011 345.298248,339.189575 344.950806,340.546936 
z"/>
<path fill="#000000" opacity="1.000000" stroke="none" 
	d="
M443.574707,488.844879 
	C430.660614,493.770813 413.157715,490.913635 407.274658,482.410095 
	C417.290436,482.954071 426.819672,483.935699 436.134003,482.361328 
	C445.424744,480.790955 452.980804,474.769653 461.335205,470.502625 
	C457.996094,479.252106 451.598602,484.593903 443.574707,488.844879 
z"/>
<path fill="#000000" opacity="1.000000" stroke="none" 
	d="
M369.662842,875.299683 
	C365.238525,875.897278 363.412750,874.426453 363.567505,870.152161 
	C363.783508,864.186279 363.652039,858.201416 363.477722,852.230286 
	C363.384583,849.039062 364.665894,847.827637 367.835541,847.688110 
	C376.114532,847.323669 381.242767,850.434204 382.186096,856.723755 
	C383.674744,866.649475 379.861877,872.500488 369.662842,875.299683 
z"/>
<path fill="#000000" opacity="1.000000" stroke="none" 
	d="
M946.199219,896.022217 
	C946.221252,900.479614 946.319824,904.405273 944.360352,908.153625 
	C942.843750,911.054871 940.955261,912.889832 937.565186,913.135498 
	C931.092163,913.604614 929.930115,912.643738 929.867615,906.171692 
	C929.808228,900.024292 929.933655,893.873047 929.762268,887.729614 
	C929.666199,884.283813 930.115784,881.332092 933.936096,880.258240 
	C938.145142,879.075134 941.399475,880.633362 943.888672,884.065918 
	C946.407959,887.539856 946.311340,891.541992 946.199219,896.022217 
z"/>
<path fill="#000000" opacity="1.000000" stroke="none" 
	d="
M847.038086,900.754822 
	C845.302063,907.239807 841.802368,910.831787 837.277954,911.038818 
	C832.913635,911.238525 829.414978,907.405334 827.202820,901.659607 
	C824.845032,895.535522 826.212769,889.818970 828.131104,884.209412 
	C829.361755,880.610657 832.566040,878.252869 836.538330,878.121643 
	C840.701965,877.984009 844.143005,880.172852 845.657410,883.913696 
	C847.769409,889.130432 849.353394,894.640625 847.038086,900.754822 
z"/>
<path fill="#000000" opacity="1.000000" stroke="none" 
	d="
M463.129761,890.127930 
	C457.053284,889.612915 455.596771,886.927734 457.848419,880.875183 
	C459.080231,877.564026 461.749451,876.163086 465.177551,875.960144 
	C468.748230,875.748718 471.684448,876.570374 473.338959,880.168091 
	C474.661316,883.043640 474.381683,885.612244 472.373566,888.004272 
	C469.972656,890.864075 466.630524,889.914795 463.129761,890.127930 
z"/>
<path fill="#000000" opacity="1.000000" stroke="none" 
	d="
M447.077179,699.006348 
	C447.805481,696.360657 449.328278,695.067261 451.681671,694.653259 
	C454.260773,694.199646 456.999420,693.880371 457.788025,697.079956 
	C458.478546,699.881592 457.919403,702.968506 455.296143,704.588440 
	C452.660980,706.215820 450.169617,705.096619 448.524017,702.511658 
	C447.912628,701.551331 447.547180,700.434387 447.077179,699.006348 
z"/>
<path fill="#000000" opacity="1.000000" stroke="none" 
	d="
M444.324585,318.551514 
	C438.631714,308.751709 435.290283,298.914764 439.691711,287.992584 
	C443.309418,279.015167 451.661621,277.041718 458.863403,283.388458 
	C467.726288,291.198975 471.115631,308.173676 465.934814,318.803528 
	C462.915527,324.998474 456.672943,327.110382 450.547699,323.983643 
	C448.141602,322.755371 446.190308,320.972626 444.324585,318.551514 
z"/>
</svg>